<svg width="98" height="42" viewBox="0 0 98 42" fill="none" xmlns="http://www.w3.org/2000/svg">
<path d="M10.3284 18.455C10.3284 13.3967 10.5772 5.35319 9.04312 5.35319C7.67489 5.35319 5.18719 10.4115 3.36289 17.7917C1.70443 24.4255 0.336195 31.3496 0.626426 32.8837C0.833734 33.9617 0.170349 33.9617 0.0459644 32.9666C-0.244266 30.8106 0.875195 23.3475 2.40927 17.5429C4.06773 11.531 6.55543 4.52396 8.91873 4.52396C11.8625 4.52396 11.5723 14.7235 11.4893 18.2892C11.3235 26.1669 11.1991 40.0565 13.438 40.0565C15.677 40.0565 20.1133 32.0959 22.145 22.6427C23.5547 16.0088 24.1766 4.93858 23.762 0.41927C23.7205 -0.327037 24.4668 0.0461164 24.5083 0.585116C25.0473 6.26535 24.5497 15.0552 22.8498 23.2646C20.6109 34.086 16.216 40.9272 13.438 40.9272C10.3284 40.8857 10.2455 28.8204 10.3284 18.455Z" fill="#E8EAEE"/>
<path d="M47.602 24.8317C47.8093 24.7073 48.68 24.7487 47.9751 25.2048C45.2387 26.9877 36.4488 31.0094 33.7123 31.0094C31.6807 31.0094 31.1003 29.807 31.1003 28.9364C31.1003 28.0657 31.2661 27.651 31.1832 27.5681C31.1003 27.4852 30.81 27.4852 29.5247 28.19C28.6009 28.7476 27.5884 29.1431 26.5312 29.3593C25.9507 29.3593 25.5361 28.9861 25.5361 28.7373C25.5361 27.9081 26.0337 26.8716 27.6092 25.7106C28.3841 24.9684 29.3987 24.5273 30.4701 24.4668C31.4237 24.4668 32.0041 25.9594 31.5895 25.9594C31.1749 25.9594 31.0505 25.1302 30.5944 25.1302C29.7133 25.3008 28.8875 25.6852 28.1897 26.2496C27.335 26.7776 26.6678 27.5608 26.2824 28.4886C26.2824 28.5715 26.3239 28.613 26.4483 28.613C27.2396 28.4552 27.9973 28.1606 28.6872 27.7423C30.2627 26.9959 31.2993 26.4155 31.7968 26.4155C31.9627 26.4155 32.3358 26.4984 32.3358 26.7886C32.1339 27.4513 31.9951 28.1315 31.9212 28.8203C31.9212 29.5251 32.6675 30.0641 33.7455 30.0641C36.6561 30.0641 45.0728 26.1667 47.602 24.8317Z" fill="#E8EAEE"/>
<path d="M48.2662 24.6328C48.515 24.6328 48.6394 24.7157 48.5979 25.0889C48.4223 25.9609 48.1868 26.8198 47.8931 27.6595C47.8931 27.7424 47.8931 27.8254 48.0175 27.8254C48.7538 27.5333 49.4735 27.2011 50.1735 26.8303C50.9794 26.3017 51.8808 25.9355 52.827 25.7523C52.9901 25.759 53.15 25.7995 53.2966 25.8714C53.4432 25.9432 53.5733 26.0447 53.6785 26.1694C53.7838 26.2942 53.862 26.4395 53.9081 26.5961C53.9542 26.7527 53.9673 26.9171 53.9465 27.079C53.8635 28.24 53.9465 28.9448 54.2781 28.9863C55.0245 29.1521 57.7195 28.3229 59.7925 27.4522L66.1776 24.7987C66.5508 24.6328 66.7581 25.2133 66.302 25.4206C64.6435 26.2913 62.2388 27.2449 60.0413 28.1985C57.8438 29.1521 55.0659 30.0228 53.8221 29.774C52.9928 29.6082 52.7441 28.7375 52.827 27.5766C52.827 26.9547 52.827 26.7059 52.7026 26.623C52.5782 26.54 52.0392 26.6644 51.2515 27.079C50.1853 27.66 49.0764 28.159 47.9345 28.5717C47.6858 28.5717 46.9395 28.2814 46.9395 27.9497C46.9395 27.618 47.4785 26.3327 47.6858 25.006C47.7687 24.6743 48.0921 24.6743 48.2662 24.6328Z" fill="#E8EAEE"/>
<path d="M75.7129 14.1015L76.708 11.4065C78.3665 6.92865 78.5323 6.38965 78.9055 6.38965C79.2786 6.38965 79.9006 7.21888 79.8176 7.63349C79.7762 7.8408 78.6982 9.87242 77.0812 12.8162C75.4227 17.916 73.2252 23.9693 71.3595 30.6446C69.3279 37.859 69.162 40.8856 69.5352 40.9686C69.9083 41.0515 69.4108 41.7149 68.9547 41.4661C68.3328 41.1344 68.6645 37.776 70.6961 30.23C71.9814 25.462 73.3911 20.9841 74.7179 17.0453C73.2252 19.5744 71.5668 22.3523 69.9498 24.923C70.4219 25.1317 70.8673 25.3962 71.2766 25.7107C71.5253 25.9595 71.318 26.2497 70.9863 26.0839L69.5766 25.462C64.6842 33.1323 64.0622 34.086 63.2745 34.086C62.6111 34.086 61.9062 33.1323 61.9062 31.8056C61.9062 28.4886 64.3939 24.4254 67.7109 24.4254C68.2478 24.4414 68.7791 24.5392 69.2864 24.7156C71.4839 21.0256 73.9301 17.0453 75.7129 14.1015ZM68.9547 25.2961C68.7086 25.248 68.459 25.2203 68.2084 25.2132C65.0988 25.2132 62.8599 29.0691 62.8599 31.7641C62.8599 32.469 62.8599 33.3396 63.2745 33.3396C63.6891 33.3396 67.4621 27.8253 68.9547 25.2961Z" fill="#E8EAEE"/>
<path d="M97.3559 24.8317C97.5632 24.7073 98.4339 24.7487 97.729 25.2048C94.9926 26.9877 86.2027 31.0094 83.4663 31.0094C81.4346 31.0094 80.8542 29.807 80.8542 28.9364C80.8542 28.0657 81.02 27.651 80.9371 27.5681C80.8542 27.4852 80.5639 27.4852 79.2786 28.19C78.3548 28.7476 77.3423 29.1431 76.2851 29.3593C75.7047 29.3593 75.29 28.9861 75.29 28.7373C75.29 27.9081 75.7876 26.8716 77.3631 25.7106C78.1381 24.9684 79.1526 24.5273 80.224 24.4668C81.1776 24.4668 81.758 25.9594 81.3434 25.9594C80.9288 25.9594 80.8044 25.1302 80.3483 25.1302C79.4672 25.3008 78.6414 25.6852 77.9436 26.2496C77.0889 26.7776 76.4217 27.5608 76.0363 28.4886C76.0363 28.5715 76.0778 28.613 76.2022 28.613C76.9935 28.4552 77.7512 28.1606 78.4411 27.7423C80.0167 26.9959 81.0532 26.4155 81.5507 26.4155C81.7166 26.4155 82.0897 26.4984 82.0897 26.7886C81.8878 27.4513 81.749 28.1315 81.6751 28.8203C81.6751 29.5251 82.4214 30.0641 83.4994 30.0641C86.41 30.0641 94.8267 26.1667 97.3559 24.8317Z" fill="#E8EAEE"/>
</svg>
